# xmcd CD database file
#
# Track frame offsets:
#	150
#	16106
#	29368
#	41868
#	54924
#	67727
#	79850
#	94443
#	118429
#	132515
#	145469
#	158787
#	170837
#	184052
#	195984
#	209801
#	224737
#	238724
#	250951
#	264182
#	277436
#	291068
#	304659
#	317053
#	331345
#
# Disc length: 4606 seconds
#
# Revision: 2
# Processed by: cddbd v1.5PL3 Copyright (c) Steve Scherf et al.
# Submitted via: CDex 1.51
#
DISCID=8b11fc19
DTITLE=Benny Carter - The Chronological Classics 1946-1948
DYEAR=1999
DGENRE=Jazz
TTITLE0=Melodrama In A V-Disc Record Room (Jump Call)
TTITLE1=I Can't Get Started
TTITLE2=He's Funny That Way
TTITLE3=Moonglow
TTITLE4=Give Me Something To Remember You By
TTITLE5=Lady Be Good
TTITLE6=Deep Purple
TTITLE7=Back Bay Boogie
TTITLE8=Prelude To A Kiss
TTITLE9=Re-Bop Boogie
TTITLE10=Twelve O'Clock Jump
TTITLE11=Your Conscience Tells You So
TTITLE12=Mexican Hat Dance
TTITLE13=Sweet Georgia Brown
TTITLE14=Out Of My Way
TTITLE15=What'll Be
TTITLE16=Cadillac Slim
TTITLE17=Baby You're Mine For Keeps
TTITLE18=You'll Never Break My Heart Agian
TTITLE19=Chilpanicingo
TTITLE20=An Old Love Story
TTITLE21=Reina (My Loveley Queen)
TTITLE22=Let Us Drink A Toast Together
TTITLE23=June Comes Around Every Year
TTITLE24=Forever Blue
EXTD=YEAR: 1999
EXTT0=
EXTT1=
EXTT2=
EXTT3=
EXTT4=
EXTT5=
EXTT6=
EXTT7=
EXTT8=
EXTT9=
EXTT10=
EXTT11=
EXTT12=
EXTT13=
EXTT14=
EXTT15=
EXTT16=
EXTT17=
EXTT18=
EXTT19=
EXTT20=
EXTT21=
EXTT22=
EXTT23=
EXTT24=
PLAYORDER=
